<svg width="36" height="36" viewBox="0 0 36 36" fill="none" xmlns="http://www.w3.org/2000/svg">
<path d="M22.0625 6.96725C22.0625 3.11934 25.1818 0 29.0298 0C32.8777 0 35.997 3.11934 35.997 6.96725C35.997 10.8152 32.8777 13.9345 29.0298 13.9345C25.1818 13.9345 22.0625 10.8152 22.0625 6.96725Z" fill="#4D52D9"/>
<path d="M29.4519 17.0265V22.0403C29.4519 24.2617 29.4507 25.833 29.3487 27.0606C29.2483 28.2697 29.0583 29.0061 28.7582 29.5837C28.1736 30.7091 27.256 31.6267 26.1306 32.2113C25.5529 32.5114 24.8166 32.7014 23.6075 32.8018C22.3799 32.9038 20.8086 32.905 18.5872 32.905H13.9613C11.7399 32.905 10.1686 32.9038 8.94094 32.8018C7.73185 32.7014 6.99553 32.5114 6.41784 32.2113C5.29246 31.6267 4.37486 30.7091 3.79028 29.5837C3.49019 29.0061 3.30016 28.2697 3.19975 27.0606C3.0978 25.833 3.09656 24.2617 3.09656 22.0403V17.4144C3.09656 15.193 3.0978 13.6217 3.19975 12.3941C3.30016 11.185 3.49019 10.4487 3.79028 9.87096C4.37486 8.74558 5.29246 7.82799 6.41784 7.2434C6.99553 6.94332 7.73185 6.75328 8.94094 6.65287C10.1686 6.55093 11.7399 6.54968 13.9612 6.54968H18.9751C19.0198 5.4643 19.2365 4.42328 19.5985 3.45313L13.8924 3.45313C11.7554 3.45311 10.0555 3.4531 8.68467 3.56694C7.28063 3.68354 6.08376 3.92753 4.99041 4.49547C3.29946 5.37385 1.92073 6.75259 1.04235 8.44353C0.4744 9.53688 0.230416 10.7338 0.113817 12.1378C-2.24367e-05 13.5086 -1.22901e-05 15.2085 2.62833e-07 17.3455V22.1092C-1.22901e-05 24.2462 -2.24367e-05 25.9461 0.113817 27.3169C0.230416 28.7209 0.4744 29.9178 1.04235 31.0112C1.92073 32.7021 3.29946 34.0809 4.99041 34.9592C6.08376 35.5272 7.28063 35.7712 8.68467 35.8878C10.0555 36.0016 11.7553 36.0016 13.8923 36.0016H18.656C20.793 36.0016 22.493 36.0016 23.8638 35.8878C25.2678 35.7712 26.4647 35.5272 27.558 34.9592C29.249 34.0809 30.6277 32.7021 31.5061 31.0112C32.0741 29.9178 32.318 28.7209 32.4346 27.3169C32.5485 25.9461 32.5485 24.2462 32.5485 22.1093V16.403C31.5783 16.7651 30.5373 16.9817 29.4519 17.0265Z" fill="#4D52D9" fill-opacity="0.5"/>
</svg>
