<svg width="69" height="60" viewBox="0 0 69 60" fill="none" xmlns="http://www.w3.org/2000/svg">
    <path
        d="M25.5762 45.7188C25.6127 46.2016 25.6653 46.6531 25.6653 47.1474C25.6653 52.4705 23.5323 57.1622 20.2188 60.0052H31.6479H37.3624H48.7916C45.4771 57.1622 43.3456 52.4705 43.3456 47.1474C43.3456 46.6531 43.397 46.2016 43.4342 45.7188H37.3624H31.6479H25.5762Z"
        fill="#C0C3EF" />
    <path
        d="M25.5681 45.7188C25.6047 46.0045 25.6572 46.5759 25.6572 47.1474C25.6572 48.576 25.5252 50.0047 25.2109 51.4333H43.7833C43.469 50.0047 43.3375 48.576 43.3375 47.1474C43.3375 46.5759 43.389 46.0045 43.4261 45.7188H37.3544H31.6398H25.5681Z"
        fill="#C0C3EF" />
    <path
        d="M3.06822 0C1.4902 0 0.210938 1.14291 0.210938 2.85728V5.71456V11.4291V17.1437V22.8582V25.7155V28.5728V31.4301V37.1446V42.8592V45.7165C0.210938 47.1451 1.4902 48.5738 3.06822 48.5738H5.9255H43.0701H60.2138H63.0711H65.9284C67.5056 48.5738 68.7857 47.1451 68.7857 45.7165V42.8592V22.8582V20.001V17.1437V11.4291V5.71456V2.85728C68.7857 1.14291 67.5056 0 65.9284 0H63.0711H48.7847H45.9274H20.2119H8.78278H5.9255H3.06822Z"
        fill="#C0C3EF" />
    <path d="M3.07031 2.85938H65.9305V42.8613H3.07031V2.85938Z" fill="#4D52D9" />
    <path d="M65.9248 5.71094L5.92188 42.8556H61.8731H65.9248V38.284V5.71094Z" fill="#4D52D9" />
</svg>