<svg width="39" height="70" viewBox="0 0 39 70" fill="none" xmlns="http://www.w3.org/2000/svg">
<path d="M3.5881 3.17969C1.83076 3.17969 0.40625 4.45243 0.40625 6.36153V9.54338V12.7252V15.9071V19.0889V22.2708V25.4526V28.6345V31.8163V41.3618V44.5437V47.7255V50.9074V54.0892V57.2711V60.4529V63.6348V66.8166C0.40625 68.4075 1.83076 69.9985 3.5881 69.9985H19.4973H29.0429H32.2247H35.4066C37.1629 69.9985 38.5884 68.4075 38.5884 66.8166V63.6348V60.4529V57.2711V54.0892V50.9074V47.7255V44.5437V41.3618V19.0889V15.9071V12.7252V9.54338V6.36153C38.5884 4.45243 37.1629 3.17969 35.4066 3.17969H19.4973H9.95179H6.76994H3.5881Z" fill="#C0C2EF"/>
<path d="M3.5881 0C1.83076 0 0.40625 1.27274 0.40625 3.18185V6.36369V9.54554V12.7274V15.9092V19.0911V22.2729V25.4548V28.6366V38.1822V41.364V44.5458V47.7277V50.9095V54.0914V57.2732V60.4551V63.6369C0.40625 65.2278 1.83076 66.8188 3.5881 66.8188H19.4973H29.0429H32.2247H35.4066C37.1629 66.8188 38.5884 65.2278 38.5884 63.6369V60.4551V57.2732V54.0914V50.9095V47.7277V44.5458V41.364V38.1822V15.9092V12.7274V9.54554V6.36369V3.18185C38.5884 1.27274 37.1629 0 35.4066 0H19.4973H9.95179H6.76994H3.5881Z" fill="#C0C2EF"/>
<path d="M22.6762 62.0412C22.6762 62.8851 22.341 63.6944 21.7443 64.2911C21.1475 64.8878 20.3382 65.2231 19.4943 65.2231C18.6505 65.2231 17.8412 64.8878 17.2444 64.2911C16.6477 63.6944 16.3125 62.8851 16.3125 62.0412C16.3125 61.1973 16.6477 60.388 17.2444 59.7913C17.8412 59.1946 18.6505 58.8594 19.4943 58.8594C20.3382 58.8594 21.1475 59.1946 21.7443 59.7913C22.341 60.388 22.6762 61.1973 22.6762 62.0412Z" fill="#C0C2EF"/>
<path d="M3.58594 9.54688H35.4044V57.2746H3.58594V9.54688Z" fill="#4D52D9"/>
<path d="M3.58594 6.35938V44.5415L35.4044 18.132V6.35938H3.58594Z" fill="#4D52D9"/>
<path d="M9.95312 0H29.0442V3.18185H9.95312V0Z" fill="#C0C2EF"/>
</svg>
