<svg width="67" height="60" viewBox="0 0 67 60" fill="none" xmlns="http://www.w3.org/2000/svg">
    <path d="M9.5 6H12.5V54H9.5V6Z" fill="#4D52D9" />
    <path d="M24.5 6H27.5V54H24.5V6Z" fill="#4D52D9" />
    <path
        d="M6.5 0C3.1862 0 0.5 2.7 0.5 6V27V33V54C0.5 57.3 3.1862 60 6.5 60H33.5H60.5C63.815 60 66.5 57.3 66.5 54V33V27V6C66.5 2.7 63.815 0 60.5 0H33.5H6.5Z"
        fill="#4D52D9" />
    <path
        d="M6.5 0C3.1862 0 0.5 2.6862 0.5 6V15V24V27V30V33V42V51C0.5 54.315 3.1862 57 6.5 57H33.5H60.5C63.815 57 66.5 54.315 66.5 51V42V30V24V15V6C66.5 2.6862 63.815 0 60.5 0H33.5H6.5Z"
        fill="#C0C2EF" />
    <path
        d="M27.5 9L19.8125 27H3.5V30H21.5H22.3436L27.5 18L31.343 27L40.343 48L48.032 30H63.5V27H49.343H45.5L40.343 39L35.186 27L27.5 9Z"
        fill="#4D52D9" />
</svg>