<svg width="53" height="60" viewBox="0 0 53 60" fill="none" xmlns="http://www.w3.org/2000/svg">
<path d="M0.789062 2.85938V31.4308C0.789062 43.4308 11.1668 54.2879 26.5033 60.0022C41.8405 54.2879 52.2176 43.4308 52.2176 31.4308V2.85938H0.789062Z" fill="#C0C2EF"/>
<path d="M0.789062 0V28.5714C0.789062 40.5714 11.1668 51.4286 26.5033 57.1429C41.8405 51.4286 52.2176 40.5714 52.2176 28.5714V0H0.789062Z" fill="#C0C2EF"/>
<path d="M0.789062 0V28.5714C0.789062 40.5714 11.1668 51.4286 26.5033 57.1429V0H0.789062Z" fill="#C0C2EF"/>
<path d="M6.50781 5.71875V28.5759C6.50781 38.2902 14.5795 46.8616 26.5078 51.433C38.4364 46.8616 46.5078 38.2902 46.5078 28.5759V5.71875H6.50781Z" fill="#F1F2F8"/>
<path d="M6.50781 28.5703C6.50781 38.2846 14.5795 46.856 26.5078 51.4275V28.5703H6.50781Z" fill="#4D52D9"/>
<path d="M26.5078 5.71875H46.5078V28.5759H26.5078V5.71875Z" fill="#4D52D9"/>
<path d="M6.50781 5.71875H26.5078V28.5759H6.50781V5.71875Z" fill="#F1F2F8"/>
</svg>
